<?xml version="1.0" encoding="UTF-8"?> <svg xmlns="http://www.w3.org/2000/svg" xmlns:xlink="http://www.w3.org/1999/xlink" version="1.1" id="Слой_1" x="0px" y="0px" viewBox="0 0 399.7 399.7" style="enable-background:new 0 0 399.7 399.7;" xml:space="preserve"> <path fill="#FFFFFF" d="M8.4,393l26.9-98.4C18.7,265.9,10,233.2,10,199.8C10.1,95.1,95.2,10,199.9,10c50.8,0,98.5,19.8,134.3,55.7 c35.8,35.9,55.6,83.6,55.6,134.3c0,104.6-85.2,189.8-189.9,189.8c0,0,0,0,0,0h-0.1c-31.8,0-63-8-90.7-23.1L8.4,393z"></path> <path fill="#FFFFFF" d="M8.4,398c-1.3,0-2.6-0.5-3.6-1.5c-1.2-1.3-1.7-3.1-1.3-4.8L30,295.4c-16.4-29.1-25-62.1-25-95.6 C5.1,92.4,92.5,5,199.9,5c52.1,0,101,20.3,137.8,57.1c36.8,36.8,57,85.8,57,137.8c0,107.4-87.5,194.8-194.9,194.8 c-31.9,0-63.4-7.9-91.4-22.8L9.7,397.9C9.3,398,8.8,398,8.4,398z"></path> <path fill="#CFD8DC" d="M199.9,10c50.8,0,98.5,19.8,134.3,55.7c35.8,35.9,55.6,83.6,55.6,134.3c0,104.6-85.2,189.8-189.9,189.8h-0.1 c-31.8,0-63-8-90.7-23.1L8.4,393l26.9-98.4C18.7,265.9,10,233.2,10,199.8C10.1,95.1,95.2,10,199.9,10 M199.9,389.7L199.9,389.7 L199.9,389.7 M199.9,389.7L199.9,389.7L199.9,389.7 M199.9,0L199.9,0C89.7,0,0.1,89.6,0,199.8c0,33.7,8.5,66.8,24.6,96.2l-25.9,94.4 c-0.9,3.5,0,7.1,2.5,9.7c1.9,1.9,4.5,3,7.1,3c0.9,0,1.7-0.1,2.5-0.3l96.9-25.4c28.3,14.7,60,22.4,92,22.4 c110.2,0,199.9-89.6,199.9-199.8c0-53.4-20.8-103.6-58.5-141.4C303.5,20.8,253.3,0,199.9,0L199.9,0z"></path> <path fill="#40C351" d="M311.5,88.3c-29.8-29.8-69.4-46.2-111.6-46.3c-87,0-157.8,70.8-157.9,157.7c0,29.8,8.3,58.8,24.1,84l3.8,6 l-16,58.2l59.7-15.7l5.8,3.4c24.2,14.4,52,22,80.3,22h0.1c87,0,157.8-70.8,157.8-157.8C357.7,157.8,341.3,118.1,311.5,88.3z"></path> <path fill-rule="evenodd" clip-rule="evenodd" fill="#FFFFFF" d="M152.4,120.4c-3.6-7.9-7.3-8.1-10.7-8.2c-2.8-0.1-5.9-0.1-9.1-0.1s-8.3,1.2-12.6,5.9 c-4.4,4.8-16.6,16.2-16.6,39.6s17,45.9,19.4,49.1c2.4,3.2,32.8,52.6,81,71.6c40.1,15.8,48.2,12.7,56.9,11.9s28.1-11.5,32-22.6 s4-20.6,2.8-22.6c-1.2-2-4.4-3.2-9.1-5.5s-28.1-13.9-32.4-15.4c-4.3-1.6-7.5-2.4-10.7,2.4c-3.2,4.7-12.2,15.4-15,18.6 c-2.8,3.2-5.5,3.6-10.3,1.2c-4.7-2.4-20-7.4-38.2-23.5c-14.1-12.6-23.6-28.1-26.4-32.9c-2.8-4.7-0.3-7.3,2.1-9.7 c2.1-2.1,4.7-5.5,7.1-8.3c2.4-2.8,3.2-4.8,4.7-7.9c1.6-3.2,0.8-5.9-0.4-8.3C165.8,153.3,156.6,129.8,152.4,120.4z"></path> </svg> 